<?xml version="1.0" encoding="UTF-8"?>
<svg version="1.1" xmlns="http://www.w3.org/2000/svg" width="1080" height="1080">
<path d="M0 0 C1.71580765 -0.01045349 1.71580765 -0.01045349 3.46627808 -0.02111816 C7.13510875 -0.03840388 10.80378656 -0.04483759 14.47265625 -0.046875 C16.35372574 -0.04838562 16.35372574 -0.04838562 18.27279663 -0.04992676 C36.91709819 -0.03979245 55.06006457 0.57797034 73.53515625 3.203125 C75.77839642 3.48635743 78.02189119 3.76758008 80.265625 4.046875 C144.34362385 12.39464253 209.11706683 36.78224371 262.53515625 73.203125 C263.32100098 73.73663574 264.1068457 74.27014648 264.91650391 74.81982422 C282.65139459 86.90941623 299.54588865 99.88092025 315.53515625 114.203125 C316.33566406 114.91686279 316.33566406 114.91686279 317.15234375 115.64501953 C330.04456105 127.18627998 343.00142927 139.18581708 353.671875 152.83984375 C355.51810955 155.18150392 357.46192658 157.37703039 359.47265625 159.578125 C364.50133135 165.19083914 369.03432978 171.16661216 373.53515625 177.203125 C374.0264502 177.85925781 374.51774414 178.51539063 375.02392578 179.19140625 C424.31484191 245.30691358 455.46910069 324.91531981 462.53515625 407.203125 C462.62796875 408.16710205 462.72078125 409.1310791 462.81640625 410.12426758 C463.87365532 422.43649943 463.77893645 434.79201049 463.78515625 447.140625 C463.78616837 448.94649582 463.78616837 448.94649582 463.78720093 450.78884888 C463.77060308 469.45522442 463.18082905 487.70132612 460.53515625 506.203125 C460.35823242 507.4804248 460.18130859 508.75772461 459.99902344 510.07373047 C451.61009168 569.91260698 430.96764202 627.06511629 400.53515625 679.203125 C406.96816641 688.60319699 413.45390418 697.96430086 419.99316406 707.29077148 C426.52114381 716.60326011 433.01198082 725.94146509 439.50292969 735.27978516 C443.50743505 741.04023052 447.51431018 746.79902812 451.52148438 752.55761719 C454.93237577 757.45972754 458.34108602 762.3633319 461.74609375 767.26953125 C468.94011863 777.63103706 476.15804674 787.97093225 483.53515625 798.203125 C482.18078936 801.20522939 480.64831553 803.36727675 478.375 805.7421875 C477.75077148 806.39993164 477.12654297 807.05767578 476.48339844 807.73535156 C475.81985352 808.4259668 475.15630859 809.11658203 474.47265625 809.828125 C473.10082591 811.27273838 471.72972909 812.71804869 470.359375 814.1640625 C469.69728027 814.86112305 469.03518555 815.55818359 468.35302734 816.27636719 C465.41262208 819.39289664 462.56004509 822.58501645 459.70703125 825.78125 C457.17149053 828.60865152 454.60527551 831.40721627 452.03515625 834.203125 C448.68214899 837.85232614 445.3451719 841.51482185 442.03515625 845.203125 C438.72513799 848.89143106 435.38790956 852.55368837 432.03515625 856.203125 C422.0697432 867.01448437 422.0697432 867.01448437 412.53515625 878.203125 C408.53069012 876.9655868 405.00099378 875.5070763 401.359375 873.4375 C400.3796875 872.88449219 399.4 872.33148437 398.390625 871.76171875 C397.34519531 871.16488281 396.29976562 870.56804688 395.22265625 869.953125 C392.96622358 868.67694586 390.70971095 867.40090809 388.453125 866.125 C387.29079317 865.46560001 386.12852102 864.80609481 384.96630859 864.14648438 C379.66722012 861.14515065 374.35089404 858.17483586 369.03515625 855.203125 C366.95434101 854.03791411 364.87361212 852.87254901 362.79296875 851.70703125 C358.60095868 849.35942699 354.40817816 847.01320657 350.21484375 844.66796875 C341.0579891 839.545654 331.90305567 834.42018317 322.76953125 829.25634766 C320.88014264 828.18872694 318.9895373 827.12325633 317.09765625 826.06005859 C312.08462607 823.23761816 307.10696247 820.36685369 302.16015625 817.4296875 C300.59128662 816.51038452 300.59128662 816.51038452 298.99072266 815.57250977 C296.97900109 814.3925485 294.97558018 813.1982873 292.98193359 811.98803711 C292.07910645 811.46218018 291.1762793 810.93632324 290.24609375 810.39453125 C289.05959229 809.68598999 289.05959229 809.68598999 287.84912109 808.96313477 C285.52412695 807.96710465 285.52412695 807.96710465 283.07080078 808.8527832 C280.34449883 810.30465843 277.80962036 811.88137808 275.25390625 813.6171875 C274.25415771 814.29160889 273.25440918 814.96603027 272.22436523 815.66088867 C271.17192627 816.37607666 270.1194873 817.09126465 269.03515625 817.828125 C266.849958 819.29706112 264.66377061 820.76452693 262.4765625 822.23046875 C261.4364502 822.92769043 260.39633789 823.62491211 259.32470703 824.34326172 C254.15367316 827.79091934 248.90549771 831.07378546 243.53515625 834.203125 C242.33270264 834.90767822 242.33270264 834.90767822 241.10595703 835.62646484 C165.21109088 879.89506796 78.2916328 900.19452337 -9.27734375 895.390625 C-10.49197296 895.3243541 -10.49197296 895.3243541 -11.73114014 895.25674438 C-65.78545638 892.24782654 -119.11553987 879.62847694 -168.46484375 857.203125 C-169.9643457 856.5234668 -169.9643457 856.5234668 -171.49414062 855.83007812 C-196.49943818 844.38697585 -219.86184412 830.84268373 -242.46484375 815.203125 C-243.52566162 814.47633545 -243.52566162 814.47633545 -244.60791016 813.73486328 C-270.82092272 795.74738268 -295.31088954 773.89555372 -316.46484375 750.203125 C-317.26277344 749.33171875 -318.06070313 748.4603125 -318.8828125 747.5625 C-323.8266953 742.15060764 -328.56219998 736.59864489 -333.13378906 730.86865234 C-334.07460955 729.69141878 -335.01969253 728.51758572 -335.96777344 727.34619141 C-346.32566957 714.52257711 -355.51873236 701.040579 -364.46484375 687.203125 C-364.88991211 686.55005371 -365.31498047 685.89698242 -365.75292969 685.22412109 C-404.58479135 625.2895147 -428.00471767 552.50587148 -432.46484375 481.203125 C-432.51979004 480.38134766 -432.57473633 479.55957031 -432.63134766 478.71289062 C-438.87881141 382.21814071 -414.5728683 284.3422868 -356.46484375 196.203125 C-355.96098145 195.45836914 -355.45711914 194.71361328 -354.93798828 193.94628906 C-348.08216033 183.87560655 -340.71400545 174.33170387 -332.92529297 164.96777344 C-330.87003285 162.48442002 -328.8592411 159.96567286 -326.83984375 157.453125 C-322.39256742 152.02387707 -317.66429418 146.87566237 -312.88525391 141.74121094 C-311.44382786 140.18036802 -310.02059044 138.6046539 -308.6015625 137.0234375 C-304.05994141 131.97562954 -299.49540802 127.14099706 -294.28125 122.76953125 C-292.4655173 121.20370584 -290.81541671 119.5541038 -289.15234375 117.828125 C-285.49178936 114.10071117 -281.48462588 110.86721326 -277.40625 107.609375 C-275.10971826 105.73067174 -272.88562682 103.81613926 -270.66796875 101.84765625 C-198.54341967 38.48526866 -95.92984724 0.39637803 0 0 Z M-31.46484375 154.203125 C-32.93848389 154.44458252 -32.93848389 154.44458252 -34.44189453 154.69091797 C-82.36869504 162.65703634 -128.39615184 183.06085516 -166.46484375 213.203125 C-167.45742188 213.98300781 -168.45 214.76289063 -169.47265625 215.56640625 C-175.46522865 220.37241517 -181.12748931 225.48238831 -186.73828125 230.72265625 C-188.48186727 232.30886989 -190.27386019 233.8443895 -192.12109375 235.30859375 C-194.21670378 237.00254519 -195.8663851 238.64580263 -197.58984375 240.703125 C-200.49454323 244.11489486 -203.51445015 247.38195939 -206.58984375 250.640625 C-257.32367737 305.207445 -283.69027502 382.41085398 -281.57421875 456.41992188 C-278.44992544 535.92202847 -244.77024592 610.90190085 -186.92456055 665.60473633 C-180.68860673 671.36509306 -174.08364067 676.62708681 -167.33740234 681.77197266 C-165.39924959 683.25325707 -163.47317783 684.74944248 -161.546875 686.24609375 C-153.49197352 692.45389248 -145.28900532 698.06015663 -136.44384766 703.07910156 C-134.36346982 704.26070279 -132.29542278 705.46242568 -130.2265625 706.6640625 C-88.54324121 730.6184537 -40.55087699 744.08822705 7.53515625 745.203125 C8.66953125 745.24308594 9.80390625 745.28304687 10.97265625 745.32421875 C77.95481393 746.61819225 144.9808061 723.45866154 197.53515625 682.203125 C197.86515625 683.193125 198.19515625 684.183125 198.53515625 685.203125 C200.08204279 687.5913525 201.65856629 689.93268969 203.28515625 692.265625 C203.77395264 692.97170898 204.26274902 693.67779297 204.76635742 694.40527344 C208.93054128 700.39412337 213.19808591 706.30621341 217.48535156 712.20727539 C221.56401985 717.8301136 225.56421474 723.50379834 229.53515625 729.203125 C233.97841951 735.57885513 238.46893978 741.91485609 243.03515625 748.203125 C248.20182665 755.3182964 253.26094281 762.50305913 258.28710938 769.71801758 C262.81730914 776.20898397 267.42811834 782.63786687 272.09765625 789.02929688 C275.7152249 793.99874339 279.15990535 799.06619061 282.53515625 804.203125 C286.66293511 802.32771234 289.24296845 799.54104225 292.22265625 796.203125 C292.7530249 795.61861572 293.28339355 795.03410645 293.82983398 794.43188477 C295.40421034 792.69420811 296.97055247 790.94959989 298.53515625 789.203125 C299.32664062 788.32527344 300.118125 787.44742188 300.93359375 786.54296875 C302.37701495 784.94061489 303.81842148 783.3364439 305.2578125 781.73046875 C307.83325435 778.87230258 310.43205321 776.03605883 313.03515625 773.203125 C317.90462375 767.90194021 322.72938692 762.56207641 327.53515625 757.203125 C332.80598641 751.32558058 338.10747297 745.47812673 343.44873047 739.66455078 C346.32909454 736.52681387 349.19031872 733.37308682 352.03515625 730.203125 C355.81052842 725.99628173 359.62496073 721.82637647 363.44921875 717.6640625 C366.32938232 714.52645414 369.19047239 711.37291559 372.03515625 708.203125 C374.88060573 705.03248129 377.74209179 701.8777608 380.6237793 698.73999023 C381.55850213 697.72215937 382.4922724 696.70345281 383.42504883 695.68383789 C385.68148047 693.21737563 387.94782153 690.76298852 390.234375 688.32421875 C391.05550781 687.43863281 391.87664063 686.55304687 392.72265625 685.640625 C393.45871094 684.85558594 394.19476562 684.07054687 394.953125 683.26171875 C396.83982982 681.23938531 396.83982982 681.23938531 396.53515625 678.203125 C394.70487315 676.70287209 394.70487315 676.70287209 392.234375 675.375 C391.29078125 674.83037109 390.3471875 674.28574219 389.375 673.72460938 C388.33472656 673.14001953 387.29445313 672.55542969 386.22265625 671.953125 C385.14757812 671.33759766 384.0725 670.72207031 382.96484375 670.08789062 C373.89377796 664.91413972 364.7546882 659.86051552 355.61254883 654.8137207 C347.15106735 650.13360939 338.78869681 645.30238266 330.453125 640.40234375 C322.3430208 635.64555873 314.15331427 631.04265378 305.93188477 626.48144531 C300.52385657 623.47136056 295.15697405 620.40780189 289.8359375 617.24609375 C288.20398438 616.27833008 288.20398438 616.27833008 286.5390625 615.29101562 C284.46250586 614.05448588 282.39060687 612.81008923 280.32421875 611.55664062 C279.38964844 611.00041016 278.45507812 610.44417969 277.4921875 609.87109375 C276.6772583 609.37891357 275.8623291 608.8867334 275.02270508 608.37963867 C272.19554149 607.04250045 269.62650062 606.58607128 266.53515625 606.203125 C266.84106689 605.68741943 267.14697754 605.17171387 267.4621582 604.64038086 C290.58786326 565.44594907 305.18221247 524.51509125 310.53515625 479.203125 C310.63900635 478.366604 310.74285645 477.53008301 310.84985352 476.66821289 C311.85878158 467.39986127 311.73421192 458.0768185 311.72265625 448.765625 C311.722052 447.87062286 311.72144775 446.97562073 311.7208252 446.05349731 C311.69746003 433.33130847 311.49726239 420.7968606 309.53515625 408.203125 C309.40625 407.32591797 309.27734375 406.44871094 309.14453125 405.54492188 C300.37493432 346.79674245 275.06172218 294.96104841 236.53515625 250.203125 C235.94347656 249.49800781 235.35179687 248.79289062 234.7421875 248.06640625 C226.78000925 238.68872965 217.93806873 229.99491954 208.265625 222.3984375 C206.02261415 220.59504394 203.8756144 218.7436726 201.7265625 216.83203125 C188.93032915 205.58226567 174.32698345 196.56200406 159.53515625 188.203125 C158.70145508 187.73132813 157.86775391 187.25953125 157.00878906 186.7734375 C130.3774286 171.87880253 101.51709634 161.67043168 71.59765625 155.828125 C70.37933105 155.58932617 69.16100586 155.35052734 67.90576172 155.10449219 C50.60689071 151.90451364 33.48372278 150.82110705 15.91015625 150.890625 C14.94782074 150.89244781 13.98548523 150.89427063 12.99398804 150.89614868 C-2.03512638 150.94393824 -16.63310792 151.59975077 -31.46484375 154.203125 Z " fill="#020202" transform="translate(521.46484375,94.796875)"/>
<path d="M0 0 C0 0.66 0 1.32 0 2 C-1.63432755 3.47769218 -3.33476368 4.88269319 -5.0625 6.25 C-6.06925781 7.05824219 -7.07601562 7.86648437 -8.11328125 8.69921875 C-9.06589844 9.45847656 -10.01851562 10.21773437 -11 11 C-14.69776186 13.97659225 -18.05195989 16.96907251 -21.12890625 20.59375 C-25.29428489 25.39805443 -29.70731597 29.92776817 -34.1875 34.4375 C-34.98091797 35.25154297 -35.77433594 36.06558594 -36.59179688 36.90429688 C-37.35943359 37.67708984 -38.12707031 38.44988281 -38.91796875 39.24609375 C-39.60656982 39.94404053 -40.2951709 40.6419873 -41.00463867 41.36108398 C-43.06182731 43.05078267 -44.39748565 43.60417894 -47 44 C-33.43016796 27.99455709 -33.43016796 27.99455709 -25.88671875 21.63671875 C-24.0505395 20.04384275 -22.37330967 18.37487844 -20.6875 16.625 C-16.91837279 12.77771117 -12.75982845 9.46504019 -8.55078125 6.11328125 C-5.9785945 4.0591803 -5.9785945 4.0591803 -3.79296875 1.73046875 C-2 0 -2 0 0 0 Z " fill="#7D7D7D" transform="translate(253,196)"/>
<path d="M0 0 C0.66 0.33 1.32 0.66 2 1 C-0.2375915 3.32478781 -2.49204232 5.63250154 -4.75 7.9375 C-5.70132813 8.9265332 -5.70132813 8.9265332 -6.671875 9.93554688 C-7.6 10.87817383 -7.6 10.87817383 -8.546875 11.83984375 C-9.39523926 12.71177368 -9.39523926 12.71177368 -10.26074219 13.60131836 C-12.17525154 15.14093431 -13.59987554 15.59308235 -16 16 C-14.59895591 14.35975327 -13.1967649 12.72047347 -11.7890625 11.0859375 C-10.5669119 9.66098462 -9.35373454 8.22829905 -8.1484375 6.7890625 C-7.23964844 5.71785156 -7.23964844 5.71785156 -6.3125 4.625 C-5.75175781 3.95726562 -5.19101563 3.28953125 -4.61328125 2.6015625 C-3 1 -3 1 0 0 Z " fill="#424242" transform="translate(222,224)"/>
<path d="M0 0 C0.66 0 1.32 0 2 0 C-0.5378311 8.88240886 -4.77769651 16.82618207 -9 25 C-9.66 25 -10.32 25 -11 25 C-9.33913088 19.43335076 -6.88928264 14.34213647 -4.375 9.125 C-3.95476563 8.24585938 -3.53453125 7.36671875 -3.1015625 6.4609375 C-2.0708308 4.30577122 -1.03690574 2.15220078 0 0 Z " fill="#646464" transform="translate(810,657)"/>
<path d="M0 0 C1.32 0.33 2.64 0.66 4 1 C4 1.66 4 2.32 4 3 C4.56203125 3.23460937 5.1240625 3.46921875 5.703125 3.7109375 C8.54635891 5.30663 10.48098127 7.28924543 12.75 9.625 C13.54921875 10.44226563 14.3484375 11.25953125 15.171875 12.1015625 C16.07679688 13.04128906 16.07679688 13.04128906 17 14 C14 14 14 14 11.9140625 12.20703125 C11.15867188 11.41683594 10.40328125 10.62664063 9.625 9.8125 C8.83480469 8.99523437 8.04460937 8.17796875 7.23046875 7.3359375 C6.49441406 6.56507813 5.75835937 5.79421875 5 5 C3.98268069 3.9756647 2.96273026 2.95391739 1.9375 1.9375 C1.298125 1.298125 0.65875 0.65875 0 0 Z " fill="#7E7E7E" transform="translate(223,863)"/>
<path d="M0 0 C0.66 0.33 1.32 0.66 2 1 C0.36041242 6.23272633 -1.38952035 11.15196636 -4 16 C-4.66 16 -5.32 16 -6 16 C-4.25192871 10.53262809 -2.34205919 5.24175152 0 0 Z " fill="#646464" transform="translate(129,354)"/>
<path d="M0 0 C0.33 0.99 0.66 1.98 1 3 C0.57847656 3.39832031 0.15695312 3.79664063 -0.27734375 4.20703125 C-0.82519531 4.73683594 -1.37304688 5.26664063 -1.9375 5.8125 C-2.48277344 6.33457031 -3.02804687 6.85664062 -3.58984375 7.39453125 C-5.23519092 9.05812198 -5.23519092 9.05812198 -6 12 C-6.66 12 -7.32 12 -8 12 C-8.33 11.01 -8.66 10.02 -9 9 C-7.6078125 7.88625 -7.6078125 7.88625 -6.1875 6.75 C-3.72873042 4.70974439 -1.78352451 2.67528677 0 0 Z " fill="#6D6D6D" transform="translate(813,890)"/>
<path d="M0 0 C0.33 0.99 0.66 1.98 1 3 C-1.64 5.64 -4.28 8.28 -7 11 C-7.66 10.67 -8.32 10.34 -9 10 C-6.03 6.7 -3.06 3.4 0 0 Z " fill="#6E6E6E" transform="translate(823,879)"/>
<path d="M0 0 C0.33 0.99 0.66 1.98 1 3 C-1.64 5.64 -4.28 8.28 -7 11 C-7.66 10.67 -8.32 10.34 -9 10 C-6.03 6.7 -3.06 3.4 0 0 Z " fill="#777777" transform="translate(852,847)"/>
<path d="M0 0 C0.33 0.99 0.66 1.98 1 3 C-1.64 5.64 -4.28 8.28 -7 11 C-7.66 10.67 -8.32 10.34 -9 10 C-6.03 6.7 -3.06 3.4 0 0 Z " fill="#777777" transform="translate(862,836)"/>
<path d="M0 0 C0.33 0.99 0.66 1.98 1 3 C-1.64 5.64 -4.28 8.28 -7 11 C-7.66 10.67 -8.32 10.34 -9 10 C-6.03 6.7 -3.06 3.4 0 0 Z " fill="#777777" transform="translate(872,825)"/>
<path d="M0 0 C0.33 0.99 0.66 1.98 1 3 C-1.64 5.64 -4.28 8.28 -7 11 C-7.66 10.67 -8.32 10.34 -9 10 C-6.03 6.7 -3.06 3.4 0 0 Z " fill="#767676" transform="translate(882,814)"/>
<path d="M0 0 C0.33 0.99 0.66 1.98 1 3 C-1.64 5.64 -4.28 8.28 -7 11 C-7.66 10.67 -8.32 10.34 -9 10 C-6.03 6.7 -3.06 3.4 0 0 Z " fill="#767676" transform="translate(892,803)"/>
<path d="M0 0 C0.33 0.99 0.66 1.98 1 3 C-1.64 5.64 -4.28 8.28 -7 11 C-7.66 10.67 -8.32 10.34 -9 10 C-6.03 6.7 -3.06 3.4 0 0 Z " fill="#757575" transform="translate(902,792)"/>
<path d="M0 0 C0.33 0.99 0.66 1.98 1 3 C-1.64 5.64 -4.28 8.28 -7 11 C-7.66 10.67 -8.32 10.34 -9 10 C-6.03 6.7 -3.06 3.4 0 0 Z " fill="#747474" transform="translate(912,781)"/>
<path d="M0 0 C3.36591866 1.44253657 5.51047079 3.33264727 8 6 C7.67 6.99 7.34 7.98 7 9 C5.83037314 7.69013727 4.66437056 6.3770374 3.5 5.0625 C2.8503125 4.33160156 2.200625 3.60070312 1.53125 2.84765625 C0 1 0 1 0 0 Z " fill="#717171" transform="translate(209,848)"/>
</svg>
